<?xml version="1.0" encoding="UTF-8" standalone="no"?>
<!-- Created with Inkscape (http://www.inkscape.org/) -->

<svg
   xmlns:dc="http://purl.org/dc/elements/1.1/"
   xmlns:cc="http://creativecommons.org/ns#"
   xmlns:rdf="http://www.w3.org/1999/02/22-rdf-syntax-ns#"
   xmlns:svg="http://www.w3.org/2000/svg"
   xmlns="http://www.w3.org/2000/svg"
   xmlns:sodipodi="http://sodipodi.sourceforge.net/DTD/sodipodi-0.dtd"
   xmlns:inkscape="http://www.inkscape.org/namespaces/inkscape"
   width="171.10767"
   height="64.051277"
   viewBox="0 0 67.908357 25.420351"
   version="1.1"
   id="svg8"
   inkscape:version="0.92.3 (2405546, 2018-03-11)"
   sodipodi:docname="logo5.svg"
   inkscape:export-filename="C:\Users\PP\Downloads\logo5.png"
   inkscape:export-xdpi="96"
   inkscape:export-ydpi="96">
  <defs
     id="defs2" />
  <sodipodi:namedview
     id="base"
     pagecolor="#ffffff"
     bordercolor="#666666"
     borderopacity="1.0"
     inkscape:pageopacity="0"
     inkscape:pageshadow="2"
     inkscape:zoom="1.979899"
     inkscape:cx="70.565734"
     inkscape:cy="60.303609"
     inkscape:document-units="mm"
     inkscape:current-layer="layer1"
     showgrid="false"
     inkscape:window-width="1366"
     inkscape:window-height="705"
     inkscape:window-x="-8"
     inkscape:window-y="-8"
     inkscape:window-maximized="1"
     units="px"
     fit-margin-top="10"
     fit-margin-left="10"
     fit-margin-right="10"
     fit-margin-bottom="10"
     scale-x="1.5"
     inkscape:pagecheckerboard="true" />
  <metadata
     id="metadata5">
    <rdf:RDF>
      <cc:Work
         rdf:about="">
        <dc:format>image/svg+xml</dc:format>
        <dc:type
           rdf:resource="http://purl.org/dc/dcmitype/StillImage" />
        <dc:title></dc:title>
      </cc:Work>
    </rdf:RDF>
  </metadata>
  <g
     inkscape:label="Layer 1"
     inkscape:groupmode="layer"
     id="layer1"
     transform="translate(30.880648,-105.0511)">
    <g
       id="g3726"
       transform="matrix(1.0943466e-8,0,0,0.24025988,-26.911898,83.357835)">
      <path
         style="fill:#d0d0d0;stroke-width:0.35277775"
         d="M -26.911898,144.6504 V 109.72541 H 8.5355187 43.982935 l 0.09494,7.82969 0.09494,7.8297 2.116666,-0.15678 c 12.795095,-0.94772 20.284722,3.0566 20.284722,10.8452 0,1.03425 -0.722863,6.12565 -1.60636,11.31423 -1.045951,6.14262 -1.571314,10.2146 -1.505902,11.67191 0.144713,3.22397 0.130859,3.22993 -7.509644,3.22993 -3.439548,0 -6.522483,-0.10313 -6.850969,-0.22919 -0.328489,-0.12605 -0.783029,-0.67102 -1.010094,-1.21105 l -0.412842,-0.98186 -1.840985,1.23391 -1.840981,1.23391 v 8.06218 c 0,4.43419 -0.09636,8.31328 -0.214133,8.62019 -0.193283,0.50369 -3.645298,0.55802 -35.4541649,0.55802 H -26.911898 Z m 26.60437389,19.70064 c 0.53712073,-3.5227 1.05847688,-6.61833 1.15856945,-6.87917 0.30384816,-0.79181 0.93693616,-0.53878 2.00681476,0.80209 0.5749427,0.72056 1.8579027,1.66066 2.9464302,2.159 2.651543,1.21391 6.7854667,1.05044 9.7179747,-0.38431 3.633438,-1.77767 6.937389,-6.1798 8.776814,-11.69408 0.709299,-2.12635 0.822286,-3.15563 0.813255,-7.40833 -0.01238,-5.83309 -0.608524,-7.84234 -3.173091,-10.69475 -2.2352,-2.48608 -4.452479,-3.3685 -7.954705,-3.16576 -3.29402,0.19069 -5.2449973,1.19745 -6.9668692,3.59511 -1.6847396,2.34596 -2.3293239,2.19318 -2.0856289,-0.49432 l 0.1919323,-2.11667 h -5.43460216 c -2.98903094,0 -5.43460214,0.10007 -5.43460214,0.22238 0,0.2915 -6.6537179,40.2306 -6.9126899,41.49359 l -0.198926,0.97014 h 5.7863709 5.7863703 z M 5.2030946,154.0588 c -1.7651183,-0.59568 -2.8344381,-2.35485 -2.8344381,-4.66301 0,-2.01312 1.1862438,-9.49136 1.8067866,-11.39023 0.9106637,-2.78664 3.6799434,-4.59077 6.0175839,-3.92035 3.611161,1.03567 4.144797,4.61687 2.009511,13.48573 -1.28759,5.34799 -3.71366,7.59674 -6.9994434,6.48786 z m 37.9863554,6.41228 c 1.559087,-0.58026 2.562909,-1.30295 4.246661,-3.05732 1.212723,-1.26359 2.319923,-2.18246 2.460438,-2.04194 0.140519,0.14051 0.209557,1.27818 0.153423,2.52814 l -0.102062,2.27266 h 5.941222 5.941222 l -0.130976,-1.37341 c -0.141104,-1.47962 -0.06881,-1.99569 1.883329,-13.44325 1.538979,-9.02477 1.551785,-11.46596 0.07188,-13.70225 -2.021632,-3.05489 -6.606748,-4.64219 -13.409556,-4.64219 -5.794886,0 -10.451133,1.307 -13.480541,3.78398 -1.245073,1.01802 -3.329884,3.63162 -3.342556,4.19035 -0.005,0.21933 2.027552,0.79746 4.650694,1.32282 l 4.659531,0.93321 1.249497,-1.19292 c 1.685787,-1.60944 2.629344,-2.04554 4.557772,-2.10654 3.014511,-0.0953 4.629228,1.17566 4.629228,3.64383 0,1.74029 -0.570276,1.95979 -6.77133,2.60634 -8.441841,0.88018 -11.260796,1.7735 -14.246178,4.51457 -5.39592,4.95434 -4.04379,13.6448 2.483552,15.9624 2.217779,0.78745 6.150853,0.6962 8.55475,-0.19848 z m 0.630594,-6.19543 c -1.071196,-0.25914 -2.191466,-1.44439 -2.413229,-2.5532 -0.680974,-3.40488 2.715189,-6.41136 7.84843,-6.94789 l 2.149521,-0.22467 v 1.62452 c 0,2.29899 -1.207777,5.27993 -2.653573,6.54935 -1.002464,0.88018 -3.37214,1.91106 -4.049205,1.76153 -0.09701,-0.0214 -0.493889,-0.11576 -0.881944,-0.20964 z m 2.930927,-2.5783 c 1.158116,-0.70608 2.513993,-3.0422 2.529381,-4.35801 0.0068,-0.5823 -0.173425,-0.63347 -1.489759,-0.42299 -0.82363,0.13171 -1.974568,0.51726 -2.557639,0.85678 -0.955696,0.55651 -1.070553,0.81538 -1.16593,2.62785 -0.09965,1.89372 -0.05866,2.01046 0.705555,2.00921 0.446243,-7e-4 1.33652,-0.3215 1.978392,-0.71284 z m 2.132601,-13.62359 c 1.692738,-0.17693 2.168416,-0.35492 2.168416,-0.81139 0,-0.99458 -0.776725,-1.43141 -2.545182,-1.43141 -1.450499,0 -1.890924,0.1789 -3.01625,1.22518 l -1.317734,1.22517 1.271167,0.01 c 0.699142,0.005 2.246955,-0.0925 3.439583,-0.2171 z m 69.611688,24.90683 c -5.20571,-0.70335 -8.5396,-4.62054 -8.52432,-10.01574 0.003,-0.98344 0.53332,-4.92337 1.17898,-8.75542 l 1.17392,-6.96736 h -1.49268 c -0.91564,0 -1.79797,-0.24721 -2.2824,-0.63948 l -0.78973,-0.63948 0.73977,-4.3876 c 0.86251,-5.11557 1.21871,-5.62233 3.95183,-5.62233 1.96737,0 1.78782,0.32858 2.67625,-4.89759 0.34248,-2.01457 0.86916,-3.95303 1.17042,-4.30767 0.48805,-0.57453 1.24148,-0.65347 6.91344,-0.72429 3.50112,-0.0437 6.55706,0.0388 6.79097,0.18336 0.2339,0.14456 0.42477,0.69003 0.42415,1.21215 -0.001,0.96605 -0.9384,6.79242 -1.27351,7.91668 -0.1608,0.53946 0.0811,0.61736 1.91734,0.61736 1.50335,0 2.32609,0.18198 2.89108,0.63948 l 0.78973,0.63948 -0.73978,4.38761 c -0.89368,5.30046 -1.1494,5.62232 -4.46702,5.62232 -1.52103,0 -2.27283,0.1475 -2.39666,0.47021 -0.45554,1.18711 -2.11436,12.5118 -1.91052,13.04301 0.18541,0.48317 0.70301,0.59789 2.69754,0.59789 3.34369,0 3.4267,0.18182 2.51531,5.50969 -0.42196,2.46676 -0.935,4.36494 -1.28397,4.75055 -1.03438,1.14298 -6.83171,1.88579 -10.67014,1.36717 z m 8.03753,-2.219 1.57386,-0.41258 0.59715,-3.35139 c 0.32843,-1.84326 0.52361,-3.42692 0.43374,-3.51924 -0.0899,-0.0923 -1.05,-0.1823 -2.13362,-0.19996 -1.68898,-0.0275 -2.08888,-0.17003 -2.80136,-0.99834 -0.45712,-0.53144 -0.83417,-1.31458 -0.83789,-1.74032 -0.011,-1.26455 2.19994,-14.2618 2.51198,-14.76668 0.18606,-0.30105 1.26414,-0.50907 3.06133,-0.59068 l 2.77413,-0.12598 0.44258,-2.69954 c 0.24342,-1.48474 0.5271,-3.05672 0.6304,-3.49328 0.17989,-0.7602 0.0921,-0.79375 -2.07604,-0.79375 -1.33975,0 -2.52881,-0.19372 -2.91288,-0.47457 -0.62874,-0.45974 -0.62533,-0.60853 0.10896,-4.76352 0.41688,-2.35893 0.75797,-4.44725 0.75797,-4.64071 0,-0.21815 -2.00521,-0.35176 -5.27926,-0.35176 -4.67253,0 -5.3155,0.0709 -5.59464,0.61736 -0.17346,0.33955 -0.5942,2.38382 -0.93498,4.54283 -0.34077,2.159 -0.74919,4.13516 -0.90759,4.39146 -0.17292,0.27979 -1.1971,0.52389 -2.56301,0.61087 l -2.275,0.14486 -0.42284,2.69562 c -0.23256,1.48259 -0.50689,3.0528 -0.60962,3.48936 -0.17433,0.74086 -0.0712,0.79375 1.54793,0.79375 3.22701,0 3.19585,-0.14964 1.73387,8.32664 -1.44591,8.38313 -1.5747,11.2649 -0.59943,13.41258 0.72718,1.60133 2.56672,3.24971 4.34717,3.89542 1.47778,0.53595 7.38484,0.53692 9.42709,0.001 z m 73.78464,2.18804 c -3.56858,-0.59263 -6.46335,-2.7186 -8.23783,-6.05001 -1.12615,-2.11421 -1.14074,-7.08913 -0.0279,-9.50363 1.71676,-3.72472 6.26296,-7.08061 10.89462,-8.04214 1.08498,-0.22524 1.92041,-0.45917 1.85652,-0.51984 -0.0639,-0.0607 -1.70367,-0.44472 -3.64394,-0.85343 -1.94028,-0.40872 -3.88039,-0.82333 -4.31135,-0.92137 -2.30284,-0.52386 -1.38046,-3.41791 2.17298,-6.81794 3.8513,-3.68504 8.11673,-5.08004 15.54392,-5.0836 10.57284,-0.005 16.40417,3.87516 16.40417,10.91555 0,1.03425 -0.72286,6.12565 -1.60636,11.31423 -1.04595,6.14262 -1.57132,10.2146 -1.5059,11.67191 0.14517,3.23412 0.15517,3.22993 -7.71489,3.22993 -5.98859,0 -6.51034,-0.0514 -7.16452,-0.70556 -0.38805,-0.38805 -0.70555,-0.96304 -0.70555,-1.27775 0,-0.52763 -0.0618,-0.52766 -0.79375,-3.4e-4 -1.75757,1.26622 -4.10615,2.29346 -6.0762,2.65765 -2.3209,0.42904 -2.41998,0.42877 -5.08405,-0.0137 z m 7.26646,-2.47855 c 1.55909,-0.58026 2.56291,-1.30295 4.24666,-3.05732 1.21272,-1.26359 2.31992,-2.18246 2.46044,-2.04194 0.14052,0.14051 0.20955,1.27818 0.15342,2.52814 l -0.10206,2.27266 h 5.94122 5.94122 l -0.13097,-1.37341 c -0.14111,-1.47962 -0.0688,-1.99569 1.88333,-13.44325 1.53897,-9.02477 1.55178,-11.46596 0.0719,-13.70225 -2.02163,-3.05489 -6.60674,-4.64219 -13.40955,-4.64219 -5.79489,0 -10.45113,1.307 -13.48054,3.78398 -1.24508,1.01802 -3.32989,3.63162 -3.34256,4.19035 -0.005,0.21933 2.02755,0.79746 4.6507,1.32282 l 4.65953,0.93321 1.24949,-1.19292 c 1.68579,-1.60944 2.62935,-2.04554 4.55778,-2.10654 3.01451,-0.0953 4.62922,1.17566 4.62922,3.64383 0,1.74029 -0.57027,1.95979 -6.77133,2.60634 -8.44184,0.88018 -11.26079,1.7735 -14.24617,4.51457 -5.39592,4.95434 -4.04379,13.6448 2.48355,15.9624 2.21778,0.78745 6.15085,0.6962 8.55475,-0.19848 z m 0.63059,-6.19543 c -1.07119,-0.25914 -2.19146,-1.44439 -2.41323,-2.5532 -0.68097,-3.40488 2.71519,-6.41136 7.84843,-6.94789 l 2.14952,-0.22467 v 1.62452 c 0,2.29899 -1.20777,5.27993 -2.65357,6.54935 -1.00246,0.88018 -3.37214,1.91106 -4.0492,1.76153 -0.097,-0.0214 -0.49389,-0.11576 -0.88195,-0.20964 z m 2.93093,-2.5783 c 1.82589,-1.11321 3.31375,-4.93276 1.91977,-4.92831 -2.39398,0.008 -5.17314,1.7815 -5.56152,3.54979 -0.45119,2.05422 1.39021,2.75125 3.64175,1.37852 z m 2.1326,-13.62359 c 1.69274,-0.17693 2.16842,-0.35492 2.16842,-0.81139 0,-0.99458 -0.77673,-1.43141 -2.54519,-1.43141 -1.45049,0 -1.89092,0.1789 -3.01625,1.22518 l -1.31773,1.22517 1.27117,0.01 c 0.69914,0.005 2.24695,-0.0925 3.43958,-0.2171 z M 68.426293,161.92552 c -0.580937,-0.23351 -0.79375,-0.60875 -0.79375,-1.39956 0,-0.59428 1.202824,-8.33846 2.672941,-17.20928 2.332961,-14.07734 2.767721,-16.21015 3.418138,-16.76854 0.668256,-0.57371 1.362283,-0.62835 6.721492,-0.52917 5.58903,0.10343 6.007689,0.15795 6.460832,0.84134 l 0.48454,0.73075 2.031862,-0.9752 c 6.450235,-3.09582 13.928592,-1.42997 16.469342,3.66864 1.35008,2.70927 1.20583,5.27972 -1.04377,18.59924 -1.06503,6.3059 -1.93669,11.58434 -1.93701,11.72986 -3.3e-4,0.14552 -0.31809,0.58208 -0.70615,0.97013 -0.65,0.65001 -1.17592,0.70556 -6.679808,0.70556 -6.895345,0 -7.784076,-0.2022 -7.784076,-1.77098 0,-0.59559 0.808707,-5.92304 1.797127,-11.83878 1.982008,-11.8624 1.984259,-11.79024 -0.367718,-11.79024 -1.422241,0 -2.525324,0.87945 -3.140639,2.50391 -0.190916,0.50403 -1.083395,5.58403 -1.983285,11.28889 -1.392534,8.82796 -1.744144,10.4644 -2.361297,10.98984 -0.629983,0.53635 -1.495358,0.61443 -6.595074,0.595 -3.228471,-0.0123 -6.227135,-0.16593 -6.663697,-0.34141 z M 80.68532,159.9278 c 0,-1.60281 3.398947,-20.77201 3.876456,-21.86223 1.030517,-2.3528 3.590844,-3.58924 6.057145,-2.92513 1.589578,0.42802 2.413621,1.48091 2.413621,3.08389 0,0.94502 -2.598007,17.02394 -3.389623,20.97815 l -0.194215,0.97014 h 5.786004 5.786002 l 2.01401,-11.90625 c 1.10771,-6.54843 2.00912,-12.74601 2.00314,-13.77238 -0.0189,-3.25448 -1.81759,-5.70851 -5.103729,-6.96349 -1.20329,-0.45955 -2.306934,-0.5707 -4.511848,-0.45441 -3.867446,0.20397 -6.296427,1.29614 -8.381177,3.76853 -0.840038,0.99624 -1.684197,1.81134 -1.87591,1.81134 -0.215784,0 -0.267,-0.87352 -0.13444,-2.29306 l 0.214129,-2.29305 H 79.96649 c -2.903114,0 -5.278392,0.0863 -5.278392,0.19166 0,0.2766 -4.909185,29.78369 -5.147743,30.94097 l -0.199983,0.97014 h 5.672472 c 3.119865,0 5.672476,-0.11017 5.672476,-0.24482 z m 51.94653,2.00883 c -0.5793,-0.24096 -0.79375,-0.62302 -0.79375,-1.41414 0,-1.20825 5.15469,-32.39076 5.50558,-33.30516 0.12239,-0.31894 0.64026,-0.80687 1.15083,-1.08428 0.64167,-0.34865 0.74502,-0.50876 0.33472,-0.51852 -1.02128,-0.0243 -1.07192,-1.28837 -0.25076,-6.25983 0.56092,-3.39588 0.98528,-5.00772 1.43747,-5.45992 0.57122,-0.57121 1.31633,-0.6416 6.79225,-0.6416 3.38285,0 6.55785,0.15482 7.05555,0.34405 1.118,0.42506 1.13525,0.93679 0.21231,6.29724 -0.87704,5.09391 -0.93374,5.25501 -2.06565,5.86962 -0.67409,0.36602 -0.77043,0.51768 -0.33527,0.52775 0.34222,0.008 0.70326,0.38317 0.82136,0.85372 0.27264,1.0863 -5.26484,34.00212 -5.81257,34.551 -0.51661,0.51769 -12.87695,0.72886 -14.05207,0.24007 z m 15.46622,-17.81539 2.66861,-16.05139 h -5.87425 -5.87426 l -2.56606,15.25764 c -1.41134,8.3917 -2.64719,15.61482 -2.74634,16.05138 l -0.18027,0.79375 h 5.95198 5.95198 z m 3.98722,-23.9007 c 0.33796,-1.98878 0.69379,-3.89378 0.79074,-4.23333 0.16292,-0.57058 -0.27592,-0.61736 -5.7912,-0.61736 h -5.96748 l -0.69919,4.23333 -0.69921,4.23334 h 5.87594 5.87594 z m 0.20884,41.43002 -0.78879,-0.63872 3.59164,-22.02725 c 1.97539,-12.11498 3.7483,-22.52644 3.93979,-23.13657 0.21115,-0.6728 0.65456,-1.19148 1.12682,-1.3181 0.42827,-0.11482 3.42015,-0.21094 6.64862,-0.21359 5.15496,-0.004 5.96651,0.0734 6.66273,0.63715 l 0.79279,0.64196 -3.59651,22.02401 c -1.97808,12.1132 -3.75279,22.52321 -3.94379,23.13333 -0.21077,0.67328 -0.65335,1.19139 -1.12594,1.3181 -0.42827,0.11483 -3.42015,0.21095 -6.64862,0.21359 -5.14408,0.004 -5.96748,-0.0742 -6.65874,-0.63391 z m 13.05785,-1.84187 c 0,-0.40764 6.59693,-40.88981 6.91115,-42.41037 l 0.20047,-0.97014 h -5.84886 c -3.72988,0 -5.84887,0.13001 -5.84887,0.35884 0,0.41244 -6.60289,40.94761 -6.90918,42.41546 l -0.20243,0.97014 h 5.84886 c 3.78358,0 5.84886,-0.12851 5.84886,-0.36393 z m 7.14375,2.11683 c -0.59186,-0.2379 -0.79375,-0.60686 -0.79375,-1.45062 0,-0.62237 1.5875,-10.79899 3.52778,-22.61473 1.94028,-11.81573 3.52778,-21.63039 3.52778,-21.81035 0,-0.17995 0.3175,-0.64469 0.70555,-1.03275 0.65274,-0.65273 1.17593,-0.70555 6.98813,-0.70555 7.5577,0 7.67886,0.0469 7.38862,2.8591 -0.10823,1.04856 -1.74889,11.34023 -3.64593,22.87036 -2.74564,16.68789 -3.58016,21.09488 -4.09138,21.6061 -0.57336,0.57336 -1.29462,0.63981 -6.72763,0.61985 -3.34698,-0.0123 -6.4426,-0.16593 -6.87917,-0.34141 z m 12.61181,-2.11683 c 0,-0.40764 6.59692,-40.88981 6.91114,-42.41037 l 0.20047,-0.97014 h -5.84886 c -3.72987,0 -5.84886,0.13001 -5.84886,0.35884 0,0.41244 -6.6029,40.94761 -6.90919,42.41546 l -0.20243,0.97014 h 5.84886 c 3.78358,0 5.84887,-0.12851 5.84887,-0.36393 z"
         id="path3740"
         inkscape:connector-curvature="0" />
      <path
         style="fill:#acacac;stroke-width:0.35277775"
         d="M -26.911898,144.6504 V 109.72541 H 8.3591291 43.630158 l 0.09494,7.8493 0.09494,7.84931 5.644444,0.026 c 7.882209,0.0363 11.339819,1.08037 14.395471,4.34711 2.912413,3.11361 2.974925,5.13286 0.58542,18.91026 -0.990801,5.71276 -1.410511,9.04519 -1.290369,10.2453 0.305477,3.0514 0.470419,2.98386 -7.287496,2.98386 -7.317895,0 -7.637748,-0.0768 -7.637748,-1.83444 0,-1.10763 -0.39116,-1.26251 -1.083042,-0.42884 -0.255132,0.30742 -1.147695,1.02941 -1.983472,1.60445 l -1.519597,1.04551 v 8.6261 8.62611 H 8.3658785 -26.911898 Z m 25.92436618,25.66458 c 0.10176721,-0.43656 0.57449788,-3.39864 1.05051256,-6.5824 0.47601468,-3.18376 1.01363246,-5.9368 1.19470656,-6.11788 0.2037818,-0.20378 0.780597,0.16758 1.513847,0.97463 2.0525951,2.25917 3.523205,2.81984 7.3582327,2.80535 2.935351,-0.0111 3.604521,-0.13533 5.390501,-1.00079 5.433261,-2.63288 9.540748,-9.93808 10.021093,-17.82261 0.351423,-5.76834 -0.693684,-9.56568 -3.458051,-12.56467 -1.944391,-2.10941 -3.810419,-3.04568 -6.50059,-3.26162 -3.568583,-0.28645 -5.8309858,0.58142 -8.3421331,3.2001 l -2.0921196,2.1817 0.089592,-2.11666 0.089592,-2.11667 H -0.28138151 -5.8904146 l -3.5772403,21.34305 c -1.9674821,11.73868 -3.5129471,21.46212 -3.4343661,21.60764 0.07858,0.14552 2.749855,0.26458 5.9361655,0.26458 5.7178492,0 5.7957016,-0.0103 5.97832368,-0.79375 z M 4.9750199,153.82966 c -1.5549802,-0.62829 -2.2535857,-2.04777 -2.2535857,-4.57902 0,-3.21983 1.2655751,-10.07104 2.2181619,-12.00806 2.2165422,-4.50719 7.4827399,-3.94977 8.2052849,0.86852 0.429211,2.86217 -1.205734,11.11486 -2.683312,13.54454 -1.2403561,2.0396 -3.5521018,2.95562 -5.4865491,2.17402 z m 39.1396461,6.56326 c 1.202083,-0.58813 2.605811,-1.68272 3.566897,-2.78139 0.871615,-0.99638 1.708718,-1.68709 1.860229,-1.5349 0.151511,0.15219 0.275474,1.17573 0.275474,2.27454 v 1.99784 l 6.085416,0.0965 6.085417,0.0965 v -2.07225 c 0,-1.13973 0.398864,-4.35817 0.886361,-7.15207 1.854087,-10.62595 2.358866,-14.28237 2.213582,-16.0343 -0.442765,-5.33917 -4.827037,-8.14333 -13.330498,-8.52613 -7.069399,-0.31823 -12.736047,1.33002 -16.084511,4.67848 -1.669944,1.66995 -2.827546,3.63297 -2.378149,4.03278 0.162034,0.14416 2.12023,0.61135 4.351549,1.03821 2.231319,0.42686 4.324216,0.85365 4.650881,0.94843 0.373253,0.10829 1.01304,-0.28825 1.721876,-1.06721 2.179095,-2.39466 6.06903,-2.99655 7.949417,-1.23002 0.637752,0.59914 0.84727,1.16818 0.84727,2.30115 0,0.82786 -0.125441,1.58271 -0.278755,1.67747 -0.153313,0.0948 -2.733001,0.43315 -5.732638,0.75199 -6.742733,0.71671 -9.264103,1.27403 -11.990708,2.65041 -4.330333,2.18595 -6.555169,5.82529 -6.251014,10.22529 0.245685,3.55416 1.863308,6.08932 4.848055,7.59793 2.081597,1.05213 2.897234,1.20535 5.861301,1.10109 2.268805,-0.0798 3.270362,-0.30119 4.842548,-1.07039 z m -1.55648,-7.24872 c -1.149269,-1.14926 -1.294758,-2.24122 -0.539464,-4.0489 0.931827,-2.23018 4.898199,-4.26894 7.836803,-4.0282 1.334695,0.10934 1.370072,0.14679 1.272889,1.34719 -0.277724,3.43042 -1.613567,5.78886 -3.946384,6.96736 -2.148738,1.08551 -3.36326,1.02314 -4.623844,-0.23745 z m 4.153108,-1.06994 c 0.620046,-0.37807 1.360396,-1.05216 1.645218,-1.49799 0.685257,-1.07261 1.458376,-3.75278 1.166671,-4.04449 -0.451083,-0.45108 -4.221822,0.66218 -5.050835,1.49119 -0.643262,0.64326 -0.828693,1.21382 -0.828693,2.54982 0,0.94662 0.105833,1.82697 0.235186,1.95631 0.438203,0.43821 1.700167,0.23556 2.832453,-0.45484 z m 4.428888,-14.00814 c 0.453891,-0.27471 0.290499,-1.26903 -0.31926,-1.9428 -0.643329,-0.71087 -2.671205,-0.86549 -4.121136,-0.31423 -0.909888,0.34594 -2.703353,2.08268 -2.703353,2.61785 0,0.3004 6.602239,-0.0331 7.143749,-0.36082 z m 66.841728,24.58548 c -3.28366,-0.59733 -6.08855,-2.91563 -7.15993,-5.91784 -0.73671,-2.0644 -0.5841,-5.38709 0.55501,-12.08336 1.40184,-8.24083 1.44278,-7.76111 -0.66237,-7.76111 -2.6039,0 -2.72512,-0.30693 -1.98719,-5.03151 0.81844,-5.23995 1.02719,-5.55182 3.71602,-5.55182 1.15969,0 2.10854,-0.11897 2.10854,-0.26438 0,-1.21968 1.56933,-8.82071 1.88644,-9.13693 0.26588,-0.26513 2.58957,-0.44828 6.71371,-0.52916 5.67533,-0.11131 6.3461,-0.0626 6.69648,0.48654 0.29233,0.45815 0.20841,1.66771 -0.33672,4.85325 -0.39935,2.33366 -0.64788,4.32124 -0.55227,4.41685 0.0956,0.0956 1.15981,0.17383 2.3649,0.17383 3.19483,0 3.26632,0.16043 2.3719,5.32319 -0.40244,2.323 -0.92527,4.45684 -1.16183,4.74189 -0.30612,0.36884 -1.16942,0.51825 -2.99451,0.51825 -2.36864,0 -2.57871,0.0606 -2.75188,0.79375 -0.10312,0.43656 -0.62811,3.51762 -1.16664,6.84679 -1.17917,7.2895 -1.18558,7.26912 2.23691,7.11542 2.22814,-0.10006 2.90002,0.20498 2.91588,1.32386 0.0158,1.11518 -1.41757,8.02745 -1.74691,8.42429 -0.9127,1.09973 -7.67941,1.87053 -11.04554,1.2582 z m 7.92979,-1.45831 c 1.0282,-0.21475 2.00784,-0.51982 2.17697,-0.67794 0.33766,-0.31566 1.65833,-7.13319 1.42713,-7.36707 -0.0789,-0.0798 -1.11094,-0.15922 -2.29334,-0.17639 -1.81256,-0.0263 -2.2556,-0.16186 -2.82404,-0.86404 -0.37082,-0.45806 -0.67421,-1.35376 -0.67421,-1.99045 0,-1.80525 2.12866,-13.69943 2.54056,-14.19574 0.23453,-0.2826 1.30978,-0.44348 2.96397,-0.44348 2.95262,0 2.57399,0.48193 3.45674,-4.39986 0.2797,-1.5468 0.43222,-2.93586 0.33893,-3.0868 -0.0933,-0.15095 -1.27648,-0.27445 -2.62932,-0.27445 -1.87915,0 -2.50843,-0.12701 -2.66619,-0.53812 -0.11357,-0.29597 0.12953,-2.43955 0.54024,-4.76353 0.4107,-2.32397 0.74673,-4.38369 0.74673,-4.57715 0,-0.38422 -8.69169,-0.50078 -10.49206,-0.1407 -1.05151,0.2103 -1.05802,0.22687 -1.83444,4.67003 -0.42855,2.45244 -0.94546,4.65934 -1.1487,4.90422 -0.22056,0.26576 -1.20266,0.44525 -2.43627,0.44525 -2.35183,0 -2.09398,-0.39881 -2.90425,4.49205 -0.26465,1.59751 -0.39918,2.98657 -0.29894,3.08681 0.10024,0.10024 1.03391,0.18225 2.07481,0.18225 1.34723,0 1.9504,0.15075 2.09332,0.52319 0.11042,0.28776 -0.37081,3.90119 -1.0694,8.02985 -0.6986,4.12867 -1.27018,8.20075 -1.27018,9.04908 0,4.08685 2.39126,7.25275 6.17361,8.17356 1.65263,0.40233 5.94751,0.36984 8.00833,-0.0606 z m 74.06099,1.44373 c -3.67854,-0.77561 -7.24536,-3.95165 -8.17775,-7.28182 -0.65665,-2.34534 -0.27716,-6.28974 0.81066,-8.42591 1.79006,-3.51513 5.98357,-6.32728 11.00065,-7.37699 1.31205,-0.27452 2.44906,-0.56263 2.52668,-0.64025 0.0776,-0.0776 -1.5654,-0.49758 -3.65116,-0.93324 -5.88436,-1.22909 -6.37374,-1.38924 -6.62043,-2.16651 -0.53791,-1.69481 3.8997,-6.70833 7.32513,-8.27578 3.42463,-1.56708 6.09221,-2.06195 11.20162,-2.07804 7.11908,-0.0224 10.89102,1.15779 13.86631,4.33861 2.91241,3.1136 2.97492,5.13286 0.58542,18.91026 -0.9908,5.71276 -1.41051,9.04519 -1.29037,10.2453 0.30548,3.0514 0.47042,2.98386 -7.2875,2.98386 -7.31789,0 -7.63775,-0.0768 -7.63775,-1.83444 0,-0.54328 -0.0938,-0.98778 -0.2085,-0.98778 -0.11468,0 -0.84756,0.54701 -1.62863,1.21557 -0.78107,0.66857 -2.15568,1.47077 -3.05469,1.78267 -2.03092,0.7046 -5.72216,0.9541 -7.75969,0.52449 z m 8.53641,-2.2441 c 1.20209,-0.58813 2.60582,-1.68272 3.5669,-2.78139 0.87162,-0.99638 1.70872,-1.68709 1.86023,-1.5349 0.15151,0.15219 0.27547,1.17573 0.27547,2.27454 v 1.99784 l 6.08542,0.0965 6.08542,0.0965 v -2.07225 c 0,-1.13973 0.39886,-4.35817 0.88636,-7.15207 1.85409,-10.62595 2.35886,-14.28237 2.21358,-16.0343 -0.44276,-5.33917 -4.82704,-8.14333 -13.3305,-8.52613 -7.0694,-0.31823 -12.73604,1.33002 -16.08451,4.67848 -1.66994,1.66995 -2.82754,3.63297 -2.37815,4.03278 0.16204,0.14416 2.12023,0.61135 4.35155,1.03821 2.23132,0.42686 4.32422,0.85365 4.65088,0.94843 0.37326,0.10829 1.01304,-0.28825 1.72188,-1.06721 2.17909,-2.39466 6.06903,-2.99655 7.94942,-1.23002 0.63775,0.59914 0.84727,1.16818 0.84727,2.30115 0,0.82786 -0.12545,1.58271 -0.27876,1.67747 -0.15331,0.0948 -2.733,0.43315 -5.73264,0.75199 -6.74273,0.71671 -9.2641,1.27403 -11.99071,2.65041 -4.33033,2.18595 -6.55516,5.82529 -6.25101,10.22529 0.24569,3.55416 1.86331,6.08932 4.84806,7.59793 2.08159,1.05213 2.89723,1.20535 5.8613,1.10109 2.2688,-0.0798 3.27036,-0.30119 4.84254,-1.07039 z m -1.29226,-6.93836 c -1.87807,-1.47729 -1.44413,-4.67856 0.87201,-6.43295 1.55601,-1.17862 4.44498,-2.0951 6.16111,-1.95451 1.3347,0.10934 1.37008,0.14679 1.27289,1.34719 -0.27772,3.43042 -1.61356,5.78886 -3.94638,6.96736 -1.94856,0.98438 -3.17481,1.00489 -4.35963,0.0729 z m 4.03228,-1.48868 c 1.26009,-0.83929 2.26863,-2.52279 2.64815,-4.4204 0.26927,-1.34633 -0.13786,-1.43028 -2.92394,-0.6029 -3.00922,0.89364 -4.62783,3.21367 -3.47237,4.97712 0.71291,1.08803 2.15725,1.10583 3.74816,0.0462 z m 4.2855,-13.89976 c 0.45389,-0.27471 0.2905,-1.26903 -0.31926,-1.9428 -0.64333,-0.71087 -2.6712,-0.86549 -4.12114,-0.31423 -0.90988,0.34594 -2.70335,2.08268 -2.70335,2.61785 0,0.3004 6.60224,-0.0331 7.14375,-0.36082 z M 68.186591,161.38183 c -0.315701,-0.3157 -0.478885,-0.88567 -0.378756,-1.32292 0.09676,-0.42253 1.373141,-7.98261 2.836404,-16.80018 1.463262,-8.81757 2.832427,-16.23913 3.042588,-16.49236 0.286554,-0.34527 1.864727,-0.46041 6.310936,-0.46041 5.976356,0 6.65758,0.13349 7.094252,1.3902 0.06583,0.18945 1.076452,-0.13057 2.245826,-0.71117 2.841857,-1.41099 6.281197,-1.97134 8.998298,-1.46604 2.868531,0.53345 4.279361,1.2806 6.106301,3.23375 1.80722,1.93206 2.55633,4.47224 2.16263,7.33335 -0.88646,6.44207 -4.14807,25.01737 -4.45844,25.39134 -0.28747,0.34638 -1.96682,0.45912 -6.839031,0.45912 -6.979288,0 -7.774386,-0.20195 -7.392081,-1.8776 0.0964,-0.42253 0.964142,-5.52734 1.928312,-11.34404 1.590385,-9.59457 1.704322,-10.65015 1.228019,-11.37708 -0.844324,-1.2886 -3.448039,-0.96412 -4.648168,0.57926 -0.707951,0.91044 -1.043704,2.5181 -2.724379,13.04492 -0.879493,5.50865 -1.77812,10.23147 -1.996948,10.49514 -0.627348,0.75591 -12.752108,0.68838 -13.515763,-0.0753 z m 14.334024,-11.43911 c 0.915356,-5.72346 1.937085,-11.01127 2.270513,-11.75067 1.08181,-2.39903 3.889068,-3.63992 6.132403,-2.7107 2.237842,0.92695 2.239232,1.45865 0.03813,14.57976 -1.207209,7.19637 -1.588488,10.21854 -1.302995,10.32809 0.221975,0.0852 2.931579,0.11098 6.021348,0.0573 l 5.617756,-0.0975 2.01908,-11.99444 c 1.11049,-6.59694 2.02545,-12.78819 2.03325,-13.75833 0.0487,-6.06074 -6.319343,-9.44032 -13.568915,-7.20116 -1.942028,0.59983 -2.738028,1.09036 -4.293503,2.64584 -1.050216,1.05021 -1.993177,1.90948 -2.095465,1.90948 -0.102288,0 -0.131621,-0.91281 -0.06519,-2.02847 l 0.120791,-2.02847 h -5.445756 -5.445756 l -2.71301,16.05139 c -1.492154,8.82826 -2.641363,16.17432 -2.553793,16.32458 0.08757,0.15026 2.725928,0.22963 5.863018,0.17639 l 5.703806,-0.0968 z m 49.871525,11.43911 c -0.3157,-0.3157 -0.47888,-0.88567 -0.37875,-1.32292 0.0968,-0.42253 1.37314,-7.98261 2.8364,-16.80018 1.46326,-8.81757 2.83243,-16.23913 3.04259,-16.49236 0.28933,-0.34862 1.9819,-0.46041 6.97113,-0.46041 6.89685,0 7.42463,0.11126 7.44658,1.56986 0.0283,1.88136 -5.49073,33.14014 -5.92851,33.57793 -0.75833,0.75832 -13.22327,0.69425 -13.98944,-0.0719 z m 13.34574,-1.82657 c 0.58862,-2.89122 5.15022,-30.41359 5.15022,-31.07379 0,-0.77972 -0.0105,-0.78089 -6.0724,-0.68454 l -6.07239,0.0965 -2.68802,16.13981 c -1.47842,8.8769 -2.60876,16.21909 -2.51187,16.31598 0.0969,0.0969 2.83584,0.17615 6.08655,0.17615 h 5.9104 z m 6.53452,1.81979 c -0.39186,-0.47216 0.11343,-4.10553 3.17663,-22.84236 2.00343,-12.25449 3.86421,-22.63808 4.13508,-23.07465 0.48172,-0.77643 0.63376,-0.79375 6.96753,-0.79375 5.41312,0 6.54936,0.0895 6.92806,0.54584 0.37456,0.45131 -0.17563,4.40675 -3.1773,22.84236 -1.99667,12.26309 -3.85161,22.65371 -4.1221,23.09027 -0.48109,0.77646 -0.63289,0.79375 -6.96686,0.79375 -5.4908,0 -6.5459,-0.0854 -6.94104,-0.56146 z m 16.81457,-22.89826 c 1.97377,-12.02972 3.51899,-21.99128 3.4338,-22.1368 -0.0852,-0.14552 -2.76185,-0.26458 -5.94816,-0.26458 -5.71736,0 -5.79574,0.0104 -5.97999,0.79374 -0.54542,2.31898 -7.12428,43.1691 -6.98953,43.40008 0.0876,0.15015 2.79985,0.22952 6.02723,0.17639 l 5.86796,-0.0966 z m 3.16906,22.90504 c -0.30849,-0.30849 -0.48113,-0.89566 -0.38897,-1.32292 0.0911,-0.42253 1.77367,-10.61073 3.73895,-22.64045 1.96529,-12.02972 3.73592,-22.07066 3.93475,-22.31319 0.26525,-0.32356 2.08109,-0.44098 6.8195,-0.44098 6.97316,0 7.76341,0.20047 7.40165,1.8776 -0.0911,0.42253 -1.77367,10.61074 -3.73895,22.64046 -1.96529,12.02972 -3.73592,22.07066 -3.93475,22.31319 -0.26525,0.32355 -2.08109,0.44097 -6.8195,0.44097 -5.4021,0 -6.54869,-0.0907 -7.01268,-0.55468 z m 13.02476,-1.65018 c 0.53255,-2.26427 7.12596,-43.1663 6.99473,-43.39166 -0.0847,-0.14552 -2.76105,-0.26458 -5.94736,-0.26458 -5.71736,0 -5.79574,0.0104 -5.97998,0.79374 -0.53256,2.26428 -7.12596,43.16631 -6.99473,43.39167 0.0847,0.14552 2.76104,0.26458 5.94735,0.26458 5.71736,0 5.79574,-0.0104 5.97999,-0.79375 z m -46.66936,-34.55458 c -0.23283,-0.23283 -0.42333,-0.81051 -0.42333,-1.28372 0,-1.59615 1.45124,-9.38151 1.83496,-9.84387 0.29298,-0.35301 1.92172,-0.43642 7.08395,-0.36277 5.8704,0.0837 6.75065,0.17044 7.08283,0.69755 0.44009,0.69833 -0.92716,9.95114 -1.58812,10.74754 -0.53062,0.63936 -13.35471,0.68085 -13.99029,0.0453 z m 13.74486,-4.69194 c 0.33254,-1.94028 0.61449,-3.96809 0.62654,-4.50625 l 0.0219,-0.97847 -6.07624,0.0965 -6.07623,0.0965 -0.60461,3.52778 c -0.33254,1.94028 -0.61449,3.96809 -0.62654,4.50624 l -0.0219,0.97847 6.07623,-0.0965 6.07624,-0.0965 z"
         id="path3738"
         inkscape:connector-curvature="0" />
      <path
         style="fill:#909090;stroke-width:0.35277775"
         d="M -26.911898,144.6487 V 109.722 l 35.189582,0.0899 35.189582,0.0899 0.09471,7.98436 0.09471,7.98435 4.491397,-0.17907 c 5.400795,-0.21532 9.003471,0.27716 11.902087,1.62699 3.527862,1.64287 5.833865,4.61723 5.779188,7.45421 -0.02339,1.2126 -0.03196,1.20509 -0.479401,-0.41954 -0.660385,-2.39782 -1.754392,-3.97002 -3.624414,-5.20867 -5.507838,-3.64824 -17.199228,-3.58027 -23.542049,0.13687 -2.385377,1.39793 -6.028591,5.81615 -5.210076,6.31841 0.144808,0.0889 2.443992,0.59628 5.109298,1.1276 l 4.84601,0.96604 1.571332,-1.4484 c 0.864235,-0.79662 1.986202,-1.55253 2.49326,-1.67979 1.369558,-0.34374 4.389713,0.0346 4.978785,0.62363 0.646528,0.64652 0.978425,2.77234 0.535999,3.4331 -0.232226,0.34682 -2.135751,0.69484 -6.274597,1.14719 -3.267685,0.35713 -6.814368,0.90246 -7.881521,1.21184 -6.496907,1.88353 -9.981536,5.77132 -9.981536,11.13637 0,5.73605 4.125733,9.56008 10.315053,9.56074 3.720627,3.5e-4 6.21171,-1.00199 8.651811,-3.48138 1.030908,-1.04752 1.96337,-1.90457 2.072135,-1.90457 0.108769,0 0.245022,0.99219 0.302786,2.20486 l 0.105029,2.20486 5.468055,0.10098 c 7.341969,0.13559 7.055556,0.23981 7.055556,-2.56745 0,-1.97786 2.9025,-20.56405 3.36103,-21.52242 0.419068,-0.87588 -0.34247,4.93334 -1.633167,12.45825 -0.847062,4.93846 -1.368397,9.02631 -1.304731,10.23056 l 0.106034,2.00564 h -7.042322 -7.04232 l -0.313238,-1.32451 -0.313238,-1.32451 -1.287498,0.98876 c -0.70812,0.54382 -1.724057,1.26257 -2.257633,1.59722 l -0.970139,0.60847 v 8.81131 8.81131 H 8.3658785 -26.911898 Z m 25.6255733,26.54283 c 0.2210798,-0.14255 0.83557211,-3.11668 1.36553816,-6.60918 0.52996604,-3.4925 1.10279744,-6.50047 1.27295834,-6.68437 0.1883255,-0.20353 0.7780517,0.1773 1.5071442,0.97329 2.6010464,2.83968 7.566979,3.67965 11.943578,2.02021 5.404432,-2.04915 9.927833,-9.18818 10.825088,-17.08463 1.163726,-10.24154 -3.339316,-17.22651 -11.105521,-17.22651 -3.188646,0 -5.1065712,0.81255 -7.1339868,3.02238 -0.828614,0.90317 -1.6569499,1.64213 -1.8407461,1.64213 -0.1837961,0 -0.2995894,-0.83344 -0.2573178,-1.85208 l 0.076857,-1.85209 -5.29166649,-0.0878 c -2.91041651,-0.0483 -5.48113031,0.0349 -5.71269721,0.18489 -0.4764299,0.30862 -7.6650226,42.57505 -7.3712746,43.34054 0.14629,0.38123 1.360814,0.48211 5.7527613,0.47785 3.062027,-0.003 5.748205,-0.12203 5.9692848,-0.26458 z m 5.4026539,-18.33904 c -1.5040423,-1.34398 -1.6304993,-2.90767 -0.7099473,-8.77877 1.1703145,-7.46404 2.5163024,-9.65387 5.9337912,-9.65387 1.4962399,0 2.7206749,0.87705 3.2806499,2.3499 0.914354,2.40493 -0.461278,11.52419 -2.206957,14.63021 -1.4454149,2.57177 -4.3064955,3.23167 -6.2975368,1.45253 z M 50.054213,138.43952 c 1.444353,-0.21387 1.752155,-0.64029 1.313666,-1.81994 -0.678324,-1.82488 -4.092271,-1.8308 -6.165257,-0.0107 -0.663402,0.58248 -1.206189,1.3786 -1.206189,1.76916 0,0.66405 0.154446,0.69529 2.38125,0.48169 1.309687,-0.12564 2.964127,-0.31473 3.67653,-0.42022 z m 67.143607,23.87268 c -2.52506,-0.61473 -4.998,-2.68574 -5.95934,-4.99078 -1.08383,-2.59875 -1.04287,-4.38964 0.28444,-12.43574 0.69882,-4.23623 1.18063,-7.84779 1.07067,-8.0257 -0.10995,-0.17791 -0.9764,-0.32347 -1.92545,-0.32347 -1.20661,0 -1.81945,-0.1678 -2.0378,-0.55798 -0.19333,-0.34546 -0.0727,-1.96399 0.31665,-4.24962 0.9177,-5.38687 0.72306,-5.07017 3.11613,-5.07017 1.22128,0 2.1886,-0.17823 2.39337,-0.44097 0.18901,-0.24254 0.63783,-2.24102 0.99737,-4.44108 0.35953,-2.20005 0.8359,-4.24928 1.05859,-4.55383 0.58341,-0.79786 12.99513,-1.15524 13.29158,-0.38271 0.10639,0.27725 -0.12844,2.34959 -0.52184,4.6052 -0.39341,2.25561 -0.61925,4.35137 -0.50187,4.65725 0.1643,0.42816 0.74618,0.55614 2.52861,0.55614 1.7665,0 2.36497,0.12969 2.52519,0.54723 0.26531,0.69138 -0.91834,8.29718 -1.38343,8.88957 -0.21597,0.27509 -1.24265,0.44097 -2.72926,0.44097 -1.6388,0 -2.51413,0.15795 -2.80277,0.50573 -0.23084,0.27815 -0.91194,3.4605 -1.51356,7.07189 -1.31231,7.87754 -1.33192,7.81483 2.40728,7.69416 1.77057,-0.0571 2.34156,0.0477 2.49939,0.45904 0.31613,0.82383 -0.97633,8.36057 -1.54685,9.02013 -0.95512,1.1042 -8.49644,1.77228 -11.5671,1.02474 z m 7.73568,-0.76971 c 1.45707,-0.21671 2.8934,-0.5739 3.19184,-0.79375 0.3211,-0.23654 0.75746,-1.62389 1.06887,-3.39834 0.82755,-4.71539 0.86803,-4.58611 -1.43625,-4.58611 -4.15879,0 -4.30863,-0.50631 -2.78057,-9.39595 0.66256,-3.85452 1.20727,-7.12728 1.21046,-7.2728 0.003,-0.14552 1.15674,-0.26701 2.56344,-0.26998 1.4067,-0.003 2.76359,-0.13605 3.01531,-0.29573 0.52974,-0.33604 1.68628,-6.77316 1.36659,-7.60625 -0.16707,-0.43537 -0.75116,-0.55929 -2.63634,-0.55929 -1.33194,0 -2.49764,-0.0759 -2.59044,-0.16872 -0.0928,-0.0928 0.1965,-2.26732 0.64288,-4.83227 0.57834,-3.32323 0.69932,-4.73294 0.42093,-4.905 -0.21487,-0.1328 -2.79281,-0.16339 -5.72876,-0.068 -3.94682,0.12826 -5.43937,0.30023 -5.7267,0.65983 -0.21374,0.26749 -0.66088,2.19479 -0.99365,4.28289 -0.86293,5.41485 -0.63675,5.03039 -2.96304,5.03666 -1.10258,0.003 -2.18351,0.12203 -2.40206,0.26458 -0.47328,0.30869 -1.70135,7.30214 -1.37501,7.83017 0.12458,0.20158 1.0809,0.36651 2.12515,0.36651 1.04425,0 1.97035,0.11906 2.058,0.26458 0.0876,0.14552 -0.3859,3.43959 -1.05232,7.32014 -1.33329,7.76369 -1.53531,11.34984 -0.74556,13.23488 1.78292,4.25559 6.05078,5.89088 12.76723,4.89193 z m 74.06103,0.73748 c -1.7304,-0.53608 -4.40492,-2.49151 -5.64663,-4.12845 -2.93565,-3.87002 -2.18655,-10.38271 1.63363,-14.20289 1.84818,-1.84817 5.6231,-3.67515 8.72661,-4.22347 2.80516,-0.49561 3.43438,-0.67404 3.20077,-0.90764 -0.0945,-0.0945 -2.39916,-0.6247 -5.12145,-1.17821 -2.7223,-0.55351 -5.12832,-1.11682 -5.34672,-1.2518 -1.93508,-1.19594 2.8811,-6.99853 7.50736,-9.04494 3.59274,-1.58924 10.84179,-2.20721 16.08444,-1.37116 5.82073,0.92823 10.26896,4.76974 10.19126,8.80122 -0.0234,1.2126 -0.032,1.20509 -0.4794,-0.41954 -0.66039,-2.39782 -1.75439,-3.97002 -3.62441,-5.20867 -5.50784,-3.64824 -17.19923,-3.58027 -23.54205,0.13687 -2.38538,1.39793 -6.02859,5.81615 -5.21008,6.31841 0.14481,0.0889 2.44399,0.59628 5.1093,1.1276 l 4.84601,0.96604 1.57133,-1.4484 c 0.86424,-0.79662 1.9862,-1.55253 2.49326,-1.67979 1.36956,-0.34374 4.38971,0.0346 4.97878,0.62363 0.64653,0.64652 0.97843,2.77234 0.536,3.4331 -0.23222,0.34682 -2.13575,0.69484 -6.27459,1.14719 -3.26769,0.35713 -6.81437,0.90246 -7.88152,1.21184 -6.46596,1.87456 -9.98768,5.78202 -9.97681,11.06959 0.0105,5.11734 3.06016,8.57794 8.4348,9.5715 3.92339,0.72528 7.82322,-0.5851 10.71383,-3.59994 0.91228,-0.9515 1.75425,-1.72999 1.87105,-1.72999 0.11679,0 0.25961,0.99219 0.31738,2.20486 l 0.10502,2.20486 5.46806,0.10098 c 7.34197,0.13559 7.05555,0.23981 7.05555,-2.56745 0,-1.97786 2.90251,-20.56405 3.36104,-21.52242 0.41906,-0.87588 -0.34247,4.93334 -1.63317,12.45825 -0.84706,4.93846 -1.3684,9.02631 -1.30473,10.23056 l 0.10603,2.00564 h -7.04232 -7.04232 l -0.31324,-1.32451 -0.31324,-1.32451 -1.28749,1.01298 c -2.62609,2.06616 -4.20612,2.62021 -7.81389,2.74002 -1.84326,0.0612 -3.84911,-0.0429 -4.45745,-0.23136 z m 15.63371,-23.85432 c 1.27984,-0.22196 1.55816,-0.66519 1.13408,-1.80607 -0.38594,-1.03828 -1.88356,-1.58935 -3.55288,-1.30732 -1.50825,0.25482 -2.73285,1.11061 -3.8656,2.70142 l -0.77892,1.09389 2.97061,-0.24366 c 1.63384,-0.13401 3.47556,-0.33122 4.09271,-0.43826 z M 68.11823,161.06847 c -0.232463,-0.60579 5.084938,-32.8814 5.568618,-33.80044 0.299223,-0.56856 0.897103,-0.61668 6.574232,-0.52917 6.221652,0.0959 6.245507,0.0993 6.360467,0.91035 0.06347,0.44774 0.222218,0.76524 0.352778,0.70555 0.130563,-0.0597 1.345081,-0.66415 2.698933,-1.34324 2.367506,-1.18755 2.610108,-1.23473 6.35,-1.23473 3.650915,0 4.003862,0.0639 5.777772,1.04648 3.25795,1.80454 4.63707,4.15608 4.63707,7.90669 0,1.97738 -3.71149,24.76837 -4.24384,26.06002 -0.3231,0.78393 -0.41032,0.79375 -7.048561,0.79375 -5.672304,0 -6.753352,-0.0832 -6.926058,-0.5333 -0.112554,-0.29331 0.609804,-5.33362 1.605248,-11.20069 0.99544,-5.86707 1.806889,-11.08452 1.803217,-11.59434 -0.0086,-1.19178 -0.830178,-1.86 -2.286939,-1.86 -1.541716,0 -2.955544,0.9796 -3.583728,2.48305 -0.282363,0.67579 -1.225215,5.70376 -2.095218,11.17325 -0.870006,5.46949 -1.733567,10.30172 -1.919023,10.73828 -0.332422,0.78252 -0.429884,0.79375 -6.882221,0.79375 -5.413869,0 -6.579196,-0.0891 -6.742747,-0.51526 z m 12.48725,-0.48626 c 0.277318,-0.176 1.055433,-4.12412 2.032606,-10.31335 0.870804,-5.5155 1.82354,-10.67895 2.117189,-11.47433 0.80615,-2.18354 1.930887,-3.05296 4.192079,-3.24047 1.701433,-0.1411 2.019695,-0.0568 2.824935,0.74846 0.49911,0.49912 0.907475,1.26453 0.907475,1.70093 0,0.43639 -0.808231,5.53013 -1.796072,11.31941 -0.987838,5.78928 -1.707198,10.75757 -1.598571,11.04064 0.161664,0.4213 1.20765,0.5137 5.764823,0.50928 3.062026,-0.003 5.753656,-0.12393 5.981406,-0.26879 0.544,-0.34602 4.40961,-22.86858 4.4336,-25.83192 0.0421,-5.20182 -3.45894,-8.25529 -9.433797,-8.22773 -3.804045,0.0175 -6.445169,1.03291 -8.695033,3.34276 -0.916358,0.94079 -1.757229,1.71053 -1.868608,1.71053 -0.111375,0 -0.161371,-0.91282 -0.111097,-2.02848 l 0.0914,-2.02847 -5.115277,-0.088 c -2.813403,-0.0484 -5.321904,0.0454 -5.574443,0.20845 -0.524136,0.33837 -5.904745,31.85949 -5.581957,32.70066 0.162112,0.42246 1.178476,0.51538 5.58908,0.51096 2.965012,-0.003 5.593129,-0.13373 5.840257,-0.29057 z m 51.71264,0.4715 c -0.22178,-0.57793 5.00002,-32.30791 5.52974,-33.60122 0.32142,-0.78473 0.40296,-0.79375 7.1741,-0.79375 5.58556,0 6.88438,0.0923 7.04089,0.50009 0.20174,0.52574 -5.18436,33.42472 -5.57589,34.05824 -0.14425,0.23339 -2.7235,0.36666 -7.09603,0.36666 -5.78567,0 -6.90151,-0.0836 -7.07281,-0.53002 z m 13.20455,-0.6165 c 0.20097,-0.24254 1.57779,-7.64978 3.05959,-16.46055 2.14735,-12.76816 2.60107,-16.07864 2.23542,-16.31057 -0.5729,-0.3634 -11.24328,-0.3874 -11.81063,-0.0266 -0.48146,0.30621 -5.91887,31.95741 -5.62263,32.72939 0.26566,0.69229 11.56848,0.75588 12.13825,0.0683 z m 6.83581,0.52916 c -0.2144,-0.41582 0.85872,-7.75757 3.28725,-22.4897 1.98307,-12.02978 3.71893,-22.22947 3.85747,-22.66597 0.24954,-0.78623 0.31423,-0.79363 6.94196,-0.79363 5.83129,0 6.71812,0.0731 6.90857,0.56938 0.26772,0.69767 -6.9106,44.9391 -7.39166,45.55631 -0.25273,0.32426 -2.05635,0.44097 -6.81448,0.44097 -5.8062,0 -6.50348,-0.0634 -6.78911,-0.61736 z m 12.93142,-0.39514 c 0.64647,-0.40986 7.83062,-43.99451 7.33363,-44.4915 -0.4105,-0.4105 -11.10433,-0.4899 -11.73305,-0.0871 -0.46733,0.2994 -7.68589,43.62538 -7.39481,44.3839 0.1553,0.40471 1.26855,0.50063 5.75983,0.49627 3.06202,-0.003 5.77751,-0.13867 6.0344,-0.30155 z m 6.90355,0.51231 c -0.21718,-0.56598 6.77477,-44.04571 7.28028,-45.27272 0.32297,-0.78393 0.41015,-0.79375 7.04843,-0.79375 5.50898,0 6.7564,0.0912 6.91537,0.50545 0.21846,0.56929 -6.77363,44.03263 -7.28232,45.26746 -0.32295,0.78394 -0.41012,0.79375 -7.0484,0.79375 -5.47614,0 -6.75697,-0.0927 -6.91336,-0.50019 z m 12.80265,-0.4818 c 0.48046,-0.30553 7.68232,-43.59389 7.38263,-44.37488 -0.15656,-0.40798 -1.25627,-0.5032 -5.76082,-0.49883 -3.06202,0.003 -5.7551,0.12482 -5.98462,0.27077 -0.47825,0.30414 -7.67968,43.60215 -7.38133,44.37964 0.15436,0.40225 1.27787,0.49868 5.75909,0.49434 3.06203,-0.003 5.7553,-0.12494 5.98505,-0.27104 z M 42.585322,153.11707 c -0.492877,-0.49288 -0.705556,-1.17593 -0.705556,-2.26599 0,-2.69581 2.254871,-4.61599 6.433118,-5.47825 2.271557,-0.46878 2.739104,-0.32849 2.739104,0.82186 0,2.64413 -1.877293,6.06284 -3.905059,7.11144 -1.465083,0.75762 -3.707878,0.66467 -4.561607,-0.18906 z m 4.409722,-1.01522 c 1.271855,-0.70714 2.645833,-3.26189 2.645833,-4.91962 0,-1.19249 -0.0074,-1.19791 -1.322917,-0.96359 -0.727604,0.1296 -2.037291,0.58383 -2.910416,1.0094 l -1.5875,0.77375 -0.106483,2.26093 c -0.143241,3.04136 0.48543,3.3937 3.281483,1.83913 z m 159.998656,0.85367 c -0.6824,-0.72639 -0.78489,-1.13071 -0.63152,-2.49141 0.20547,-1.82289 1.14292,-3.05075 3.08702,-4.04332 1.46815,-0.74956 5.1319,-1.55799 5.63937,-1.24436 0.87721,0.54214 -0.19144,4.81211 -1.63314,6.52547 -1.90373,2.26245 -4.95742,2.85489 -6.46173,1.25362 z m 4.39578,-0.84118 c 1.26775,-0.71982 2.64584,-3.2766 2.64584,-4.90884 0,-1.1637 -0.0138,-1.17361 -1.32292,-0.95094 -1.91219,0.32526 -4.35485,1.60059 -5.14104,2.68418 -0.92769,1.27861 -0.87178,2.74551 0.13575,3.56136 0.90127,0.7298 1.90235,0.62494 3.68237,-0.38576 z M 138.59585,124.7847 c -0.28009,-0.33749 -0.19111,-1.65186 0.32839,-4.85069 1.07913,-6.64481 0.1587,-5.97527 8.21438,-5.97527 5.98828,0 6.87655,0.0718 7.06831,0.57155 0.23357,0.60866 -1.0296,8.58924 -1.57071,9.92359 -0.31785,0.78379 -0.40552,0.79375 -6.98903,0.79375 -5.07198,0 -6.75907,-0.11076 -7.05134,-0.46293 z m 12.88741,-0.51972 c 0.23032,-0.14645 0.75435,-2.23309 1.16449,-4.63698 0.60386,-3.53929 0.65841,-4.42607 0.28678,-4.6618 -0.5748,-0.3646 -11.24421,-0.38701 -11.81382,-0.0248 -0.23033,0.14646 -0.75435,2.2331 -1.16449,4.63698 -0.60386,3.5393 -0.65842,4.42608 -0.28678,4.66181 0.5748,0.3646 11.24421,0.38701 11.81382,0.0248 z"
         id="path3736"
         inkscape:connector-curvature="0" />
      <path
         style="fill:#686168;stroke-width:0.35277775"
         d="m -26.911898,144.65435 v -34.92106 l 34.8065335,9.4e-4 c 24.9580765,6.6e-4 34.9398705,0.11159 35.2777755,0.39203 0.36679,0.3044 0.471244,2.09718 0.471244,8.08819 0,4.2334 0.119062,7.76185 0.264583,7.841 0.145521,0.0792 1.78768,-0.002 3.649243,-0.17988 2.15827,-0.20648 3.819994,-0.19869 4.586111,0.0215 0.992067,0.2851 0.581106,0.35082 -2.35809,0.37709 -5.873313,0.0525 -10.561041,1.58596 -13.929021,4.55648 -1.631484,1.43895 -3.506449,4.40764 -3.063526,4.85057 0.364,0.36399 10.178168,2.28767 10.53767,2.06548 0.172166,-0.1064 0.31303,0.12018 0.31303,0.50352 0,0.38333 0.172709,0.75454 0.383801,0.82491 0.692362,0.23078 6.837623,-0.4918 7.289115,-0.85709 0.663544,-0.53685 0.531421,-1.59105 -0.304122,-2.42659 -0.633967,-0.63397 -1.057498,-0.7225 -2.839639,-0.59359 -1.529736,0.11065 -1.923373,0.0556 -1.459766,-0.20428 1.020741,-0.57211 3.802877,-0.42217 4.845762,0.26116 0.811978,0.53203 0.927919,0.82297 0.835367,2.09631 l -0.107463,1.47855 -2.469444,0.26725 c -5.934237,0.64223 -10.736213,1.42748 -12.7,2.07677 -4.465094,1.47632 -7.428977,4.26481 -8.519205,8.01506 -2.057206,7.07653 3.230679,13.19789 10.936259,12.66002 1.387009,-0.0968 3.23621,-0.42252 4.109335,-0.72378 1.43026,-0.49351 1.50888,-0.49365 0.79375,-0.001 -0.787943,0.54233 -0.79375,0.6118 -0.79375,9.49913 v 8.95279 H 8.3658785 -26.911898 Z m 26.0090085,26.36619 c 0.18844259,-0.24254 0.71952165,-3.10824 1.18017568,-6.36824 0.46065367,-3.25999 0.95442152,-6.11636 1.09726122,-6.34748 0.1784689,-0.28877 0.6780449,-0.0193 1.5970479,0.86131 2.291014,2.19541 3.3909211,2.59399 7.1581717,2.59399 2.994096,0 3.577047,-0.11063 5.468056,-1.03773 5.662051,-2.77594 9.851449,-10.1925 10.311955,-18.2554 0.537213,-9.40599 -3.491241,-15.57851 -10.494221,-16.07957 -3.329859,-0.23825 -5.6282381,0.58017 -7.8396386,2.79157 -0.942195,0.94219 -1.7991959,1.71308 -1.9044461,1.71308 -0.1052502,0 -0.1373783,-0.75406 -0.071395,-1.67569 l 0.1199684,-1.6757 -5.61753606,-0.0975 c -3.60519364,-0.0626 -5.75110204,0.0361 -5.99039114,0.27539 -0.4256888,0.42569 -7.6819315,43.00203 -7.4051245,43.44991 0.309647,0.50102 11.9942922,0.36147 12.390117,-0.14798 z m 5.7798209,-17.69022 c -1.9808048,-1.09788 -2.26619,-3.86596 -1.0785633,-10.46148 0.8834691,-4.90637 1.6658113,-6.78479 3.2205946,-7.73271 1.4703316,-0.89643 2.6227754,-0.90366 4.0630153,-0.0255 2.149193,1.31045 2.353176,5.09559 0.63881,11.85381 -1.01691,4.00878 -1.659502,5.28404 -3.1074536,6.16691 -1.3061092,0.79638 -2.5399942,0.86209 -3.736403,0.19897 z m 113.6740286,8.93893 c -2.72407,-0.35495 -3.83226,-0.92498 -5.66619,-2.91455 -2.56642,-2.78424 -2.76111,-5.26274 -1.15501,-14.7043 0.57761,-3.39548 1.05203,-6.61017 1.05427,-7.14375 0.004,-0.92199 -0.0791,-0.9704 -1.67163,-0.97554 -2.74365,-0.009 -2.74861,-0.0207 -2.00432,-4.76651 0.35724,-2.27791 0.86648,-4.3586 1.13164,-4.62376 0.28791,-0.28791 1.24513,-0.4821 2.37637,-0.4821 1.04184,0 1.96789,-0.11914 2.05789,-0.26476 0.09,-0.14562 0.50373,-2.16968 0.91942,-4.49792 0.41569,-2.32824 0.98264,-4.46183 1.2599,-4.74132 0.59771,-0.60253 1.13694,-0.23932 0.61085,0.41145 -0.19985,0.24722 -0.71235,2.43139 -1.13888,4.85371 -0.42653,2.42231 -0.85063,4.52575 -0.94244,4.6743 -0.0918,0.14855 -1.10069,0.27009 -2.24196,0.27009 -1.24694,0 -2.18068,0.17096 -2.33977,0.42838 -0.3555,0.5752 -1.50888,7.43873 -1.30634,7.77371 0.088,0.14552 1.02872,0.26458 2.09051,0.26458 1.2937,0 1.99071,0.15684 2.11298,0.47547 0.10035,0.26152 -0.38088,3.78855 -1.0694,7.83785 -0.68853,4.04931 -1.25186,8.09332 -1.25186,8.98668 0,3.71567 2.30418,7.14377 5.54355,8.24754 0.90073,0.30691 2.83972,0.56917 4.30887,0.58281 1.82003,0.0169 2.44636,0.1214 1.96563,0.32798 -0.84114,0.36145 -1.74623,0.35754 -4.64408,-0.02 z m 81.89497,0.0244 c -2.38606,-0.35077 -4.32101,-1.39485 -6.03887,-3.25851 -2.06591,-2.24124 -2.72439,-4.22068 -2.52869,-7.60137 0.25534,-4.41082 2.44513,-7.63212 6.64979,-9.78221 2.53508,-1.29633 5.04262,-1.86151 11.09743,-2.50127 3.10445,-0.32802 5.84289,-0.75225 6.08542,-0.94273 0.66434,-0.52175 0.53101,-1.581 -0.30412,-2.41614 -0.63397,-0.63397 -1.0575,-0.7225 -2.83964,-0.59359 -1.52974,0.11065 -1.92337,0.0556 -1.45977,-0.20428 1.02074,-0.57211 3.80288,-0.42217 4.84576,0.26116 0.81198,0.53203 0.92792,0.82297 0.83537,2.09631 l -0.10746,1.47854 -5.82083,0.62635 c -3.20146,0.34449 -6.99243,0.96906 -8.42438,1.38793 -6.55843,1.91847 -10.2828,6.48823 -9.83496,12.06738 0.21843,2.72118 1.19615,4.65993 3.2711,6.48638 1.97352,1.73716 4.18242,2.53714 7.02539,2.5443 1.51315,0.004 1.98666,0.10581 1.61285,0.34738 -0.59331,0.38342 -1.47939,0.38437 -4.06439,0.004 z m -75.08866,-0.34227 c 0.33853,-0.31082 3.24263,-0.89779 2.94298,-0.59483 -0.10255,0.10369 -0.8758,0.34341 -1.71833,0.53271 -0.84253,0.18931 -1.39362,0.21726 -1.22465,0.0621 z m 80.21138,0.23643 c 0.26427,-0.28333 3.88055,-1.61981 3.88055,-1.43414 0,0.17848 -1.81244,0.95528 -3.175,1.36079 -0.48506,0.14436 -0.80256,0.17737 -0.70555,0.0733 z M 49.013374,161.1679 c -0.236958,-0.23696 -0.43083,-0.84358 -0.43083,-1.34805 0,-0.50448 -0.18675,-1.10398 -0.414997,-1.33222 -0.318146,-0.31815 -0.263762,-0.58211 0.23302,-1.13105 0.848265,-0.93732 0.986691,-0.73719 1.028774,1.48738 l 0.03514,1.85783 H 56.0793 c 4.253057,0 6.572857,0.12596 6.497285,0.35278 -0.182707,0.54837 -13.020911,0.65564 -13.563222,0.11333 z m 19.419978,-0.19755 c -0.297247,-0.77462 5.077291,-33.21384 5.609029,-33.85455 0.306282,-0.36904 1.687258,-0.45235 6.252054,-0.37717 l 5.858941,0.0965 0.111626,0.97014 c 0.133759,1.16249 0.502496,1.20888 1.869813,0.23527 3.042416,-2.16639 9.448405,-2.9225 12.658835,-1.49414 3.76953,1.67711 5.27141,3.99571 5.28392,8.15729 0.009,2.92618 -3.68316,25.6973 -4.28371,26.42092 -0.28692,0.34571 -1.941764,0.45912 -6.698919,0.45912 -5.656862,0 -6.342309,-0.0637 -6.551411,-0.60858 -0.128443,-0.33471 0.601355,-5.64376 1.621779,-11.79788 1.911974,-11.53107 1.942917,-12.2431 0.555124,-12.77564 -1.12922,-0.43332 -2.903283,-0.20305 -3.786198,0.49146 -1.412515,1.11108 -1.908796,2.99824 -3.608691,13.72243 -0.873728,5.51213 -1.765275,10.23495 -1.981217,10.49514 -0.300793,0.36243 -1.828998,0.47307 -6.534108,0.47307 -5.508452,0 -6.165747,-0.0632 -6.376867,-0.61338 z m 12.722126,-0.35675 c 0.08746,-0.14552 0.901968,-4.94771 1.810014,-10.67153 0.908047,-5.72382 1.917422,-10.95232 2.24305,-11.6189 0.856286,-1.75284 2.203153,-2.6098 4.101775,-2.6098 1.927422,0 3.01667,0.83409 3.01667,2.31003 0,0.56362 -0.796996,5.78767 -1.771104,11.609 -0.974107,5.82134 -1.679112,10.73309 -1.566679,10.91501 0.325911,0.52734 11.994306,0.42391 12.433146,-0.1102 0.51796,-0.63041 4.31019,-23.36934 4.31019,-25.8447 0,-5.38124 -4.01976,-8.55288 -10.41457,-8.21724 -2.389092,0.12539 -3.346696,0.36173 -5.23761,1.29262 -1.272688,0.62654 -2.648031,1.6083 -3.056311,2.18168 -1.057698,1.4854 -1.45131,1.29791 -1.329313,-0.63319 l 0.105862,-1.6757 H 79.979765 74.158932 L 71.4293,143.76846 c -1.501296,8.92528 -2.657218,16.42621 -2.568709,16.66875 0.120106,0.32913 1.679423,0.44097 6.148394,0.44097 3.29311,0 6.059032,-0.11906 6.146493,-0.26458 z m 51.483432,0.35675 c -0.29482,-0.76827 5.07504,-33.21113 5.60213,-33.84624 0.46204,-0.55673 12.48541,-0.66831 13.34645,-0.12387 0.45154,0.28552 0.14199,2.61072 -2.26536,17.01613 -1.53361,9.17698 -2.93934,16.88386 -3.12385,17.12639 -0.24698,0.32466 -2.04842,0.44097 -6.82973,0.44097 -5.84356,0 -6.51785,-0.0615 -6.72964,-0.61338 z m 13.20128,-0.53314 c 0.36466,-0.56343 5.72688,-32.45457 5.51643,-32.80833 -0.28656,-0.48174 -12.33484,-0.31495 -12.74198,0.17639 -0.45629,0.55064 -5.81722,32.27452 -5.53198,32.73606 0.33078,0.53521 12.40754,0.43664 12.75753,-0.10412 z m 6.82725,0.81076 c -0.43873,-0.27752 0.0242,-3.60697 3.1711,-22.80786 2.25451,-13.75584 3.86729,-22.66537 4.15489,-22.95297 0.57968,-0.57969 12.59023,-0.68852 12.94328,-0.11729 0.14219,0.23007 -1.93914,0.35278 -5.98397,0.35278 -6.09824,0 -6.20754,0.0133 -6.53368,0.79375 -0.45099,1.07926 -7.4103,43.73008 -7.19283,44.08195 0.0951,0.15392 2.95107,0.27985 6.34656,0.27985 4.02591,0 6.09776,0.12272 5.95558,0.35278 -0.27785,0.44958 -12.15227,0.46529 -12.86093,0.017 z m 19.97529,0.10058 c -0.12936,-0.12935 -0.23519,-0.63362 -0.23519,-1.12059 0,-1.70711 7.12694,-44.33359 7.48532,-44.76992 0.26497,-0.32262 2.04325,-0.44097 6.62579,-0.44097 4.59162,0 6.35574,0.11771 6.60875,0.44097 0.39791,0.50841 -6.79344,44.95621 -7.39148,45.68472 -0.26478,0.32255 -2.03985,0.44097 -6.61,0.44097 -3.43641,0 -6.35385,-0.10583 -6.48319,-0.23518 z m 12.73837,-0.91134 c 0.44836,-0.54928 7.58165,-43.92415 7.29886,-44.38171 -0.32716,-0.52936 -11.99456,-0.42791 -12.43209,0.1081 -0.44837,0.54928 -7.58165,43.92415 -7.29887,44.3817 0.32717,0.52936 11.99457,0.42791 12.4321,-0.10809 z m 28.02671,0.73069 c -0.23696,-0.23696 -0.43083,-0.84358 -0.43083,-1.34805 0,-0.50448 -0.18675,-1.10398 -0.415,-1.33222 -0.31814,-0.31815 -0.26376,-0.58211 0.23303,-1.13105 0.84826,-0.93732 0.98669,-0.73719 1.02877,1.48738 l 0.0351,1.85783 h 6.61482 c 4.25306,0 6.57286,0.12596 6.49728,0.35278 -0.1827,0.54837 -13.02091,0.65564 -13.56322,0.11333 z M 43.643655,153.52058 c -2.088028,-0.60836 -2.227135,-3.92921 -0.240792,-5.74825 1.646731,-1.50802 6.8897,-3.00696 7.434484,-2.12549 0.25701,0.41585 -0.614634,3.91531 -1.303005,5.23131 -1.020622,1.95117 -3.87247,3.23044 -5.890687,2.64243 z m 3.218769,-1.13139 c 1.051504,-0.53644 1.611228,-1.14488 2.128075,-2.31331 0.964608,-2.18065 1.237922,-4.00249 0.608341,-4.05499 -1.600475,-0.13347 -4.966906,0.86239 -5.634517,1.66681 -0.35172,0.4238 -0.523057,3.00557 -0.342762,5.16479 0.04276,0.51201 1.829872,0.25653 3.240863,-0.4633 z m 161.263866,1.08301 c -1.10651,-0.46337 -0.99148,-0.58932 0.39084,-0.42794 1.88474,0.22003 4.02817,-1.07023 4.84482,-2.9164 0.95979,-2.16977 1.22416,-3.72594 0.68915,-4.05659 -0.4978,-0.30766 -2.66311,0.11307 -4.47229,0.869 -0.66774,0.279 -1.12211,0.35847 -1.00972,0.17661 0.25996,-0.42061 4.56722,-1.76092 5.65895,-1.76092 0.45318,0 0.90487,0.1309 1.00375,0.29088 0.25701,0.41585 -0.61464,3.91531 -1.30301,5.23131 -1.02785,1.96498 -4.06373,3.3222 -5.80249,2.59405 z m -82.10903,-0.9557 c -1.6461,-0.40472 -1.02202,-0.62619 1.45695,-0.51704 1.46287,0.0644 2.60663,0.16313 2.54168,0.21938 -0.26523,0.22973 -3.34304,0.45884 -3.99863,0.29766 z m 75.06154,-15.22547 c -2.37241,-0.512 -4.49111,-1.11286 -4.70823,-1.33525 -0.97812,-1.00183 2.47122,-5.48259 5.72623,-7.43849 1.04351,-0.62703 3.08501,-1.44026 4.53666,-1.80717 3.22573,-0.81531 8.61106,-1.24089 10.04769,-0.79401 0.81966,0.25496 0.2556,0.33604 -2.50121,0.35953 -7.3725,0.0628 -12.9773,2.48762 -16.04033,6.93957 -1.8093,2.62974 -1.87372,2.58234 5.48876,4.03793 2.13431,0.42196 3.9467,0.83021 4.02755,0.90723 0.39471,0.37603 -2.70497,-0.0337 -6.57712,-0.86934 z m -74.35598,-1.10729 c 0.11991,-0.19403 1.40865,-0.35278 2.86386,-0.35278 1.67406,0 2.56576,0.12957 2.42781,0.35278 -0.11992,0.19402 -1.40866,0.35277 -2.86387,0.35277 -1.67405,0 -2.56575,-0.12957 -2.4278,-0.35277 z m -67.733332,-8.66289 c -1.164167,-0.4511 -2.54386,-0.82961 -3.065985,-0.84114 -0.522125,-0.0115 -1.051366,-0.18609 -1.176087,-0.38789 -0.271148,-0.43873 0.839259,-0.22123 3.973657,0.77832 1.210564,0.38605 2.291496,0.84829 2.402068,1.0272 0.110574,0.17891 0.151987,0.30692 0.09203,0.28448 -0.05996,-0.0224 -1.061516,-0.40988 -2.225682,-0.86097 z m 164.394442,0 c -1.16417,-0.4511 -2.54386,-0.82961 -3.06599,-0.84114 -0.52212,-0.0115 -1.05136,-0.18609 -1.17609,-0.38789 -0.27114,-0.43873 0.83926,-0.22123 3.97366,0.77832 1.21057,0.38605 2.2915,0.84829 2.40207,1.0272 0.11057,0.17891 0.15199,0.30692 0.092,0.28448 -0.06,-0.0224 -1.06152,-0.40988 -2.22568,-0.86097 z m -95.1912,-0.39174 c -0.55489,-0.55489 -0.089,-0.66208 2.32245,-0.53438 3.49848,0.18528 3.9315,0.76956 0.57032,0.76956 -1.46167,0 -2.76342,-0.10583 -2.89277,-0.23518 z m 10.71081,-2.39873 c -0.34018,-0.4099 -0.26763,-1.48987 0.34958,-5.20348 0.42837,-2.57742 0.93905,-4.88465 1.13483,-5.12719 0.42989,-0.53253 12.48475,-0.62525 13.31149,-0.10238 0.45148,0.28553 0.41646,0.95209 -0.27165,5.17044 -0.43447,2.66346 -0.96495,5.05353 -1.17885,5.31126 -0.59523,0.71721 -12.74655,0.67291 -13.3454,-0.0487 z m 12.97718,-0.6383 c 0.44176,-0.53229 1.89055,-8.69099 1.62081,-9.12743 -0.31285,-0.50621 -12.34579,-0.37361 -12.76019,0.14062 -0.40349,0.50069 -1.85661,8.76645 -1.61246,9.17222 0.0875,0.14552 2.90851,0.26458 6.26878,0.26458 4.52265,0 6.20661,-0.11688 6.48306,-0.44999 z m -25.00549,-7.3587 c 1.25375,-0.20797 2.04046,-0.19371 2.27542,0.0412 0.24363,0.24364 -0.37258,0.34586 -1.9163,0.31788 l -2.27542,-0.0412 z"
         id="path3734"
         inkscape:connector-curvature="0" />
      <path
         style="fill:#1200fc;stroke-width:0.35277775"
         d="m -26.911898,144.64714 v -34.92826 l 17.7270827,0.0915 17.7270827,0.0915 0.094227,8.67112 c 0.086004,7.91438 0.039822,8.72012 -0.5291677,9.23263 -0.9991665,0.9 -1.5996041,0.87117 -1.8424704,-0.0885 l -0.2232043,-0.88194 -6.01989924,-0.0963 c -4.92897816,-0.0789 -6.09726376,-0.003 -6.44680866,0.41808 -0.6568059,0.7914 -7.7900481,44.03024 -7.3527161,44.5692 0.523682,0.64537 12.7304215,0.62727 13.26734222,-0.0197 0.21026754,-0.25336 0.77478322,-3.04739 1.25447843,-6.20897 0.47969555,-3.16157 0.94465805,-5.8208 1.03325045,-5.90939 0.088592,-0.0886 0.8795438,0.34534 1.7576701,0.9643 0.8781263,0.61897 2.3640019,1.32008 3.3019459,1.55805 l 1.7053524,0.43266 0.1862137,8.25158 0.1862138,8.25159 0.078369,-8.32746 0.07837,-8.32746 2.381183,-0.22236 c 5.008633,-0.46771 9.27058,-3.81856 12.078493,-9.49641 1.860846,-3.7628 2.443508,-5.9889 2.699911,-10.3152 0.367263,-6.19682 -1.100558,-10.67128 -4.504648,-13.73185 -2.78656,-2.50536 -7.227234,-3.38937 -10.714661,-2.13298 -0.776111,0.27961 -1.5301738,0.51077 -1.6756947,0.51369 -0.1455208,0.003 -0.2645833,-3.7877 -0.2645833,-8.42361 0,-7.36064 0.070725,-8.45606 0.5580204,-8.64305 0.3069096,-0.11778 7.9074716,-0.21413 16.8901346,-0.21413 13.432448,0 16.403641,0.0862 16.734959,0.48539 0.281972,0.33975 0.374319,2.84985 0.307778,8.36584 l -0.09506,7.88046 -2.533378,0.93491 c -1.393356,0.5142 -3.301665,1.49888 -4.240682,2.18818 -2.360291,1.73262 -4.909664,5.32651 -4.382964,6.17873 0.142463,0.23051 2.623125,0.89793 5.51258,1.48315 6.502128,1.31693 7.355374,2.06571 3.018515,2.64895 -4.289778,0.57691 -7.871675,2.34471 -10.361143,5.1136 -2.121391,2.35949 -2.850561,4.56973 -2.63186,7.97759 0.198025,3.08564 1.343064,5.25599 3.735811,7.08099 2.578219,1.96648 7.094336,2.79143 10.279915,1.87782 0.899069,-0.25785 1.286331,-0.23495 1.491573,0.0882 0.152471,0.24006 0.279651,4.28616 0.282621,8.99133 l 0.0054,8.55486 H 8.3658785 -26.911898 Z m 31.6343029,7.74909 c -0.5270764,-0.4146 -1.0144636,-1.24356 -1.1472213,-1.95122 -0.2242933,-1.19558 0.84039,-8.65727 1.6550064,-11.59889 0.4174102,-1.50728 2.5373703,-3.91411 3.126753,-3.54985 0.2307763,0.14263 0.3617133,3.27634 0.3617133,8.65699 0,7.97683 -0.036943,8.4532 -0.6823636,8.79862 -1.0606454,0.56764 -2.3106609,0.43349 -3.3138878,-0.35565 z m 37.7242711,-0.18996 c -0.313965,-0.81818 -0.262621,-1.73795 0.158902,-2.84664 0.298641,-0.7855 0.438267,-0.87801 0.700151,-0.46394 0.604171,0.95525 0.327314,3.8686 -0.36763,3.8686 -0.152509,0 -0.373651,-0.25111 -0.491423,-0.55802 z M 9.071434,143.4365 c 0,-5.36466 0.1293707,-8.34941 0.3682929,-8.49707 0.6181481,-0.38204 2.1286331,0.87122 2.7020101,2.24188 0.618475,1.47847 0.496121,3.83543 -0.433518,8.35104 -0.617542,2.99961 -1.8141355,6.17361 -2.3274483,6.17361 -0.1701341,0 -0.3093367,-3.72126 -0.3093367,-8.26946 z"
         id="path3732"
         inkscape:connector-curvature="0" />
      <path
         style="fill:#f80103;stroke-width:0.35277775"
         d="m -26.911898,144.64714 v -34.92826 l 17.7270827,0.0915 17.7270827,0.0915 0.094227,8.67112 c 0.086004,7.91438 0.039822,8.72012 -0.5291677,9.23263 -0.9991665,0.9 -1.5996041,0.87117 -1.8424704,-0.0885 l -0.2232043,-0.88194 -6.01989924,-0.0963 c -4.92897816,-0.0789 -6.09726376,-0.003 -6.44680866,0.41808 -0.6568059,0.7914 -7.7900481,44.03024 -7.3527161,44.5692 0.523682,0.64537 12.7304215,0.62727 13.26734222,-0.0197 0.21026754,-0.25336 0.77478322,-3.04739 1.25447843,-6.20897 0.47969555,-3.16157 0.94465805,-5.8208 1.03325045,-5.90939 0.088592,-0.0886 0.8795438,0.34534 1.7576701,0.9643 0.8781263,0.61897 2.3640019,1.32008 3.3019459,1.55805 l 1.7053524,0.43266 0.1862137,8.25158 0.1862138,8.25159 0.078369,-8.32746 0.07837,-8.32746 2.381183,-0.22236 c 5.008633,-0.46771 9.27058,-3.81856 12.078493,-9.49641 1.860846,-3.7628 2.443508,-5.9889 2.699911,-10.3152 0.367263,-6.19682 -1.100558,-10.67128 -4.504648,-13.73185 -2.78656,-2.50536 -7.227234,-3.38937 -10.714661,-2.13298 -0.776111,0.27961 -1.5301738,0.51077 -1.6756947,0.51369 -0.1455208,0.003 -0.2280285,-3.84438 -0.1833491,-8.54955 l 0.081231,-8.55486 0.1018787,8.06369 0.1018751,8.0637 1.316196,-0.30259 c 0.723907,-0.16641 2.586196,-0.30257 4.138418,-0.30257 2.378361,0 3.139274,0.15569 4.83815,0.98994 2.383546,1.17047 4.626285,3.55532 5.791214,6.15816 1.676311,3.74544 1.957362,10.1875 0.66633,15.2733 -1.322603,5.21017 -4.890566,10.62043 -8.554501,12.97157 -1.791452,1.14957 -5.119508,2.17786 -7.048645,2.17786 H 9.4242118 v 7.73225 c 0,4.25275 -0.096358,7.98337 -0.2141326,8.29028 -0.1913784,0.49873 -2.1218591,0.55802 -18.1680545,0.55802 H -26.911898 Z m 61.718668,17.88994 c -3.184487,-0.90393 -5.791415,-3.16809 -7.128814,-6.1915 -0.571997,-1.29309 -0.669374,-2.14233 -0.552379,-4.81735 0.12887,-2.94649 0.255185,-3.43704 1.362696,-5.29208 2.003718,-3.35617 6.505945,-6.17461 10.804641,-6.76381 0.851281,-0.11668 1.6224,-0.33288 1.7136,-0.48045 0.0912,-0.14757 -0.984694,-0.51866 -2.390881,-0.82464 -1.406186,-0.30599 -3.491949,-0.7584 -4.635034,-1.00535 -1.143084,-0.24695 -2.24168,-0.70804 -2.441328,-1.02464 -0.81661,-1.29501 1.986771,-5.37995 5.097237,-7.42743 2.686607,-1.76848 7.492707,-3.47493 6.847744,-2.43136 -0.110571,0.17891 -1.216677,0.66328 -2.45801,1.07637 -1.241337,0.41309 -3.104925,1.35891 -4.141308,2.10184 -2.494629,1.78826 -5.124961,5.41188 -4.574692,6.30224 0.142463,0.23051 2.623125,0.89793 5.51258,1.48315 6.502128,1.31693 7.355374,2.06571 3.018515,2.64895 -4.289778,0.57691 -7.871675,2.34471 -10.361143,5.1136 -2.121391,2.35949 -2.850561,4.56973 -2.63186,7.97759 0.132944,2.07157 0.374992,2.93335 1.197561,4.26383 2.157574,3.48979 5.947716,5.27486 10.512812,4.95129 1.373597,-0.0974 2.775261,-0.29223 3.114809,-0.43305 0.347077,-0.14394 0.617361,-0.10158 0.617361,0.0967 0,0.57913 -1.075937,0.84187 -4.056944,0.99071 -1.681191,0.0839 -3.471104,-0.0433 -4.427163,-0.31466 z M 4.7224049,152.39623 c -0.5270764,-0.4146 -1.0144636,-1.24356 -1.1472213,-1.95122 -0.2242933,-1.19558 0.84039,-8.65727 1.6550064,-11.59889 0.4174102,-1.50728 2.5373703,-3.91411 3.126753,-3.54985 0.2307763,0.14263 0.3617133,3.27634 0.3617133,8.65699 0,7.97683 -0.036943,8.4532 -0.6823636,8.79862 -1.0606454,0.56764 -2.3106609,0.43349 -3.3138878,-0.35565 z M 42.3992,152.02807 c -0.258213,-0.81356 0.06294,-3.02657 0.476292,-3.28203 0.144561,-0.0893 0.257475,0.77803 0.25092,1.9275 -0.01214,2.12948 -0.306962,2.67861 -0.727212,1.35453 z M 9.071434,143.4365 c 0,-5.36466 0.1293707,-8.34941 0.3682929,-8.49707 0.6181481,-0.38204 2.1286331,0.87122 2.7020101,2.24188 0.618475,1.47847 0.496121,3.83543 -0.433518,8.35104 -0.617542,2.99961 -1.8141355,6.17361 -2.3274483,6.17361 -0.1701341,0 -0.3093367,-3.72126 -0.3093367,-8.26946 z m 2.152463,0.76337 c 0.803599,-4.14548 0.834291,-5.52834 0.158595,-7.14552 -0.347719,-0.8322 -0.74253,-1.22339 -1.234722,-1.22339 -0.7066849,0 -0.7228879,0.16659 -0.6947821,7.14375 0.027023,6.7101 0.061327,7.06897 0.5649661,5.91197 0.294901,-0.67748 0.837576,-2.78654 1.205943,-4.68681 z"
         id="path3730"
         inkscape:connector-curvature="0" />
      <path
         style="fill:#10059f;stroke-width:0.35277775"
         d="m 9.1526682,170.71877 -0.081234,-8.32745 2.3811828,-0.22236 c 5.008633,-0.46771 9.27058,-3.81856 12.078493,-9.49642 1.860846,-3.76279 2.443508,-5.98889 2.699911,-10.31519 0.367263,-6.19682 -1.100558,-10.67128 -4.504648,-13.73185 -2.78656,-2.50536 -7.227234,-3.38937 -10.714661,-2.13298 -0.776111,0.27961 -1.5301736,0.51076 -1.6756945,0.51368 -0.1455208,0.003 -0.2280285,-3.84437 -0.1833491,-8.54955 l 0.081231,-8.55486 0.1018787,8.0637 0.1018751,8.06369 1.3161968,-0.30258 c 0.723907,-0.16642 2.586196,-0.30258 4.138418,-0.30258 2.378361,0 3.139274,0.15569 4.83815,0.98994 2.383546,1.17047 4.626285,3.55532 5.791214,6.15816 1.676311,3.74544 1.957362,10.1875 0.66633,15.2733 -1.322603,5.21017 -4.890566,10.62043 -8.554501,12.97157 -1.789067,1.14804 -5.118943,2.17786 -7.042019,2.17786 H 9.4374586 l -0.1017799,8.02569 -0.1017799,8.02569 z M 34.80677,162.53708 c -3.184487,-0.90393 -5.791415,-3.16809 -7.128814,-6.1915 -0.571997,-1.29309 -0.669374,-2.14233 -0.552379,-4.81735 0.12887,-2.94649 0.255185,-3.43704 1.362696,-5.29208 2.003718,-3.35617 6.505945,-6.17461 10.804641,-6.76381 0.851281,-0.11668 1.6224,-0.33288 1.7136,-0.48045 0.0912,-0.14757 -0.984694,-0.51866 -2.390881,-0.82464 -1.406186,-0.30599 -3.491949,-0.7584 -4.635034,-1.00535 -1.143084,-0.24695 -2.24168,-0.70804 -2.441328,-1.02464 -0.81661,-1.29501 1.986771,-5.37995 5.097237,-7.42743 2.686607,-1.76848 7.492707,-3.47493 6.847744,-2.43136 -0.110571,0.17891 -1.216677,0.66328 -2.45801,1.07637 -1.241337,0.41309 -3.104925,1.35891 -4.141308,2.10184 -2.494629,1.78826 -5.124961,5.41188 -4.574692,6.30224 0.142463,0.23051 2.623125,0.89793 5.51258,1.48315 6.502128,1.31693 7.355374,2.06571 3.018515,2.64895 -4.289778,0.57691 -7.871675,2.34471 -10.361143,5.1136 -2.121391,2.35949 -2.850561,4.56973 -2.63186,7.97759 0.132944,2.07157 0.374992,2.93335 1.197561,4.26383 2.157574,3.48979 5.947716,5.27486 10.512812,4.95129 1.373597,-0.0974 2.775261,-0.29223 3.114809,-0.43305 0.347077,-0.14394 0.617361,-0.10158 0.617361,0.0967 0,0.57913 -1.075937,0.84187 -4.056944,0.99071 -1.681191,0.0839 -3.471104,-0.0433 -4.427163,-0.31466 z m 7.59243,-10.50901 c -0.258213,-0.81356 0.06294,-3.02657 0.476292,-3.28203 0.144561,-0.0893 0.257475,0.77803 0.25092,1.9275 -0.01214,2.12948 -0.306962,2.67861 -0.727212,1.35453 z M 9.071434,143.4365 c 0,-5.36466 0.1293707,-8.34941 0.3682929,-8.49707 0.6181481,-0.38204 2.1286331,0.87122 2.7020101,2.24188 0.618475,1.47847 0.496121,3.83543 -0.433518,8.35104 -0.617542,2.99961 -1.8141355,6.17361 -2.3274483,6.17361 -0.1701341,0 -0.3093367,-3.72126 -0.3093367,-8.26946 z m 2.152463,0.76337 c 0.803599,-4.14548 0.834291,-5.52834 0.158595,-7.14552 -0.347719,-0.8322 -0.74253,-1.22339 -1.234722,-1.22339 -0.7066849,0 -0.7228879,0.16659 -0.6947821,7.14375 0.027023,6.7101 0.061327,7.06897 0.5649661,5.91197 0.294901,-0.67748 0.837576,-2.78654 1.205943,-4.68681 z"
         id="path3728"
         inkscape:connector-curvature="0" />
    </g>
    <text
       xml:space="preserve"
       style="font-style:normal;font-weight:normal;font-size:15.875px;line-height:1.25;font-family:sans-serif;letter-spacing:0px;word-spacing:0px;fill:#de4d44;fill-opacity:1;stroke:none;stroke-width:0.39687502;"
       x="-24.907375"
       y="121.61958"
       id="text4116"><tspan
         sodipodi:role="line"
         id="tspan4114"
         x="-24.907375"
         y="121.61958"
         style="font-style:normal;font-variant:normal;font-weight:bold;font-stretch:normal;line-height:0.25;font-family:Gadugi;-inkscape-font-specification:'Gadugi Bold';stroke-width:0.39687502;fill:#de4d44;fill-opacity:1;">pantilla</tspan></text>
  </g>
</svg>
